<svg width="1950" height="691" viewBox="0 0 1950 691" fill="none" xmlns="http://www.w3.org/2000/svg">
<path d="M86.6 87.0666L0.333313 173.333V345.333V517.333L86.6 603.6C143.667 660.667 173.933 690 175.667 690C177.4 690 207.4 660.933 264.067 604.267L349.667 518.667V432.4C349.667 355.6 349.4 346 347.533 344.133C345.667 342.267 339.533 342 294.6 342.267C244.733 342.667 243.667 342.667 243.667 345.333C243.667 348 244.733 348 294.067 348.4L344.333 348.667V432.4V516L259.933 600.4L175.667 684.667L91.2667 600.4L6.99998 516V345.333V174.667L91.2667 90.4L175.667 5.99996L260.467 90.8C310.733 141.067 345.933 175.333 346.867 174.8C347.667 174.267 348.333 173.333 348.333 172.667C348.333 170.533 177.267 0.666631 175.133 0.666631C173.933 0.666631 134.067 39.4666 86.6 87.0666Z" fill="white"/>
<path d="M596.6 346.267L597 690.667H684.333C761.133 690.667 771.667 690.4 771.667 688.667C771.667 686.933 761.133 686.667 686.733 686.267L601.667 686L601.4 344.4C601 20 600.867 2.66671 598.6 2.26671C596.467 1.86671 596.333 18.6667 596.6 346.267Z" fill="white"/>
<path d="M1602.47 3.20009C1601.67 4.26676 1602.73 15.0668 1605.67 38.6668C1606.33 43.7334 1607.53 53.3334 1608.33 60.0001C1609.93 73.0668 1611.8 88.1334 1613 98.6668C1613.4 102.267 1614.33 109.467 1615 114.667C1615.67 119.733 1616.87 129.333 1617.67 136C1618.47 142.533 1619.67 152.133 1620.33 157.333C1621 162.4 1622.2 172 1623 178.667C1623.8 185.2 1625 194.8 1625.67 200C1626.47 205.067 1628.2 219.467 1629.67 232C1632.33 254.267 1633 259.467 1637 290C1638.07 298.4 1639.67 310.4 1640.47 316.667C1641.13 322.933 1642.33 332.133 1643 337.333C1643.67 342.4 1644.87 352 1645.67 358.667C1646.47 365.2 1647.67 374.8 1648.33 380C1649 385.067 1650.2 394.667 1651 401.333C1651.8 407.867 1653 417.467 1653.67 422.667C1654.33 427.733 1655.53 437.733 1656.33 444.667C1657.13 451.6 1658.07 459.467 1658.47 462C1659.13 466.4 1660.6 478.267 1662.33 493.333C1662.73 496.933 1663.67 504.133 1664.33 509.333C1665 514.4 1666.2 524 1667 530.667C1667.8 537.2 1669 546.8 1669.67 552C1670.33 557.067 1671.53 566.667 1672.33 573.333C1673.13 579.867 1674.33 589.467 1675 594.667C1675.8 599.733 1677.53 614.133 1679 626.667C1683.53 664 1687.13 687.867 1688.47 689.333C1690.87 691.733 1693.4 685.867 1697.67 667.333C1698.33 664.8 1715.27 596.933 1735.4 516.667C1755.53 436.4 1772.47 368 1773 364.667C1773.53 361.333 1774.33 358.133 1774.6 357.467C1775.67 355.867 1777.67 359.467 1777.67 362.933C1777.67 364.667 1781.4 380.533 1785.8 398.267C1790.33 416.133 1794.47 432.8 1795 435.333C1796.07 439.733 1799 451.6 1801.67 462.267C1804.87 474.667 1805.93 478.933 1807 483.333C1807.67 485.867 1808.73 490.4 1809.53 493.333C1811.27 500.133 1830.33 576 1839.8 614.667C1843.8 630.8 1847.67 646.133 1848.33 648.667C1848.87 651.2 1850.07 655.733 1850.73 658.667C1851.53 661.6 1853.4 668.133 1854.87 673.333C1856.33 678.4 1857.67 684.133 1857.93 686C1858.33 689.6 1862.6 691.467 1863.53 688.4C1864.07 686.4 1866.73 668.4 1868.33 654.667C1869.53 645.067 1871.53 628.667 1873.8 611.333C1874.47 605.867 1875.67 596.267 1876.33 590C1877.93 577.333 1879.53 563.867 1881.67 548C1882.33 542.133 1883.53 532.267 1884.33 526C1885.13 519.733 1886.2 510.133 1886.87 504.667C1889.53 484.267 1891.13 470.4 1892.33 461.333C1893 456.133 1894.2 446.933 1895 440.667C1895.8 434.4 1897 424.533 1897.67 418.667C1899.13 406.4 1899.93 400.133 1905.53 355.333C1910.2 318.4 1911.93 305.467 1913.67 292C1914.33 286.8 1915.53 276.933 1916.33 270C1917.13 263.067 1918.07 255.467 1918.47 253.333C1918.87 251.067 1919.8 244.267 1920.47 238C1921.27 231.733 1922.33 222.133 1923.13 216.667C1923.8 211.2 1925 201.6 1925.67 195.333C1927 184.267 1928.2 175.2 1930.87 153.333C1931.67 147.467 1932.87 137.2 1933.67 130.667C1934.47 124 1935.67 114.4 1936.33 109.333C1938.73 89.8668 1940.47 75.7334 1941.67 66.0001C1942.33 60.5334 1943.53 51.2001 1944.33 45.3334C1945.13 39.4668 1946.33 29.8668 1947 24.0001C1947.67 18.1334 1948.6 11.0668 1949.13 8.40009C1949.8 4.40009 1949.53 3.20009 1947.8 2.53343C1944.47 1.20009 1943.8 2.53343 1942.87 12.4001C1942.33 17.3334 1941.13 26.6668 1940.33 33.3334C1939.53 39.8668 1938.33 49.4668 1937.67 54.6668C1935.27 73.7334 1933.53 88.2668 1932.33 98.0001C1931.27 107.2 1928.73 127.067 1919.67 197.333C1917.8 212 1915.67 228.8 1915 234.667C1914.33 240.533 1913.13 250.4 1912.33 256.667C1911.53 262.933 1910.33 272.133 1909.67 277.333C1909 282.4 1907.8 292 1907 298.667C1906.2 305.2 1905 315.2 1904.33 320.667C1903.67 326.133 1902.47 335.733 1901.67 342C1901 348.267 1899.67 358.133 1899 364C1898.2 369.867 1897 379.2 1896.33 384.667C1895.67 390.133 1894.47 400 1893.67 406.667C1892.87 413.2 1891.67 423.2 1891 428.667C1889.67 439.067 1888.2 450.8 1885.67 470C1884.87 476.267 1883.67 486.133 1883 492C1882.33 497.867 1879.67 519.467 1877 540C1874.33 560.533 1871.67 582 1870.87 587.6C1869.27 600.933 1867.27 617.333 1865.67 630C1864.87 635.467 1863.67 647.2 1862.87 656C1861.93 664.8 1860.87 672.533 1860.33 673.067C1859.8 673.733 1858.6 670.4 1857.8 665.733C1856.33 658.133 1852.6 642.933 1846.33 618C1843.27 606.267 1842.07 601.067 1840.47 594C1839.67 590.667 1837.8 583.2 1836.2 577.333C1834.73 571.467 1832.87 564.267 1832.2 561.333C1831.53 558.4 1830.33 553.6 1829.53 550.667C1827.67 543.467 1825.93 536.8 1824.87 532C1824.33 529.733 1817.93 504.267 1810.6 475.333C1803.4 446.4 1796.87 420.4 1796.2 417.6C1795.53 414.933 1794.47 410.4 1793.67 407.6C1793 404.933 1791.8 400 1791 396.667C1789.4 390.133 1787.53 382.667 1785.67 374.933C1782.73 363.467 1781.67 359.6 1779.93 352.667C1778.6 347.067 1777.53 345.333 1775.67 345.333C1774.2 345.333 1772.87 346.667 1772.2 348.667C1770.87 353.2 1767.13 366.933 1765.67 372.667C1762.73 384.133 1754.73 416.267 1754.07 419.333C1753.67 421.2 1745.53 453.6 1736.07 491.333C1726.47 529.067 1718.2 562.4 1717.53 565.333C1716.87 568.267 1715.13 575.467 1713.53 581.333C1710.07 594.8 1708.87 599.733 1707.13 607.333C1706.33 610.667 1703.13 623.867 1699.93 636.667C1696.6 649.467 1693.67 662.667 1693.13 666C1691.4 677.467 1690.2 675.333 1688.47 658.4C1687.67 648.933 1686.33 638 1685.67 634C1685 630 1683.8 620.667 1683 613.333C1681.67 600.8 1680.6 591.733 1677.67 569.333C1677 564.133 1675.8 555.067 1675 549.067C1674.33 542.933 1673.13 533.333 1672.33 527.733C1671.67 522 1670.47 511.867 1669.67 505.333C1668.87 498.667 1667.27 486.667 1666.2 478.667C1662.33 448.667 1661.67 443.6 1659.67 427.333C1658.47 418.133 1656.87 405.6 1656.2 399.333C1654.6 386.4 1652.73 371.2 1650.87 356.667C1650.2 351.2 1649 342.133 1648.33 336.667C1647.67 331.2 1646.47 321.2 1645.67 314.667C1644.87 308 1643.67 298.133 1643 292.667C1642.33 287.2 1641.13 277.867 1640.33 272C1639.67 266.133 1638.47 256.533 1637.67 250.667C1637 244.8 1635.8 235.2 1635 229.333C1634.33 223.467 1633.13 213.6 1632.33 207.333C1630.73 193.333 1629 179.2 1627.13 165.333C1625.27 151.067 1622.33 126.933 1618.2 94.6668C1616.47 80.0001 1614.33 64.1334 1613.67 59.3334C1613 54.5334 1611.8 44.4001 1611 36.6668C1610.07 28.9334 1608.87 19.7334 1608.2 16.2668C1607.53 12.8001 1607 8.13343 1607 6.00009C1607 2.13343 1604.2 0.400094 1602.47 3.20009Z" fill="white"/>
</svg>
