<svg width="2142" height="846" viewBox="0 0 2142 846" fill="none" xmlns="http://www.w3.org/2000/svg">
<g clip-path="url(#clip0_61_286)">
<path d="M1316.03 422.583L1589.09 205.126" stroke="white" stroke-width="3" stroke-linecap="round" stroke-linejoin="round"/>
<path d="M1316.03 422.582L1626.85 263.71" stroke="white" stroke-width="3" stroke-linecap="round" stroke-linejoin="round"/>
<path d="M1316.03 422.583L1652.22 328.627" stroke="white" stroke-width="3" stroke-linecap="round" stroke-linejoin="round"/>
<path d="M1316.03 422.582L1664.18 397.29" stroke="white" stroke-width="3" stroke-linecap="round" stroke-linejoin="round"/>
<path d="M1316.03 422.582L1662.27 466.961" stroke="white" stroke-width="3" stroke-linecap="round" stroke-linejoin="round"/>
<path d="M1316.03 422.582L1646.55 534.863" stroke="white" stroke-width="3" stroke-linecap="round" stroke-linejoin="round"/>
<path d="M1316.03 422.583L1617.66 598.289" stroke="white" stroke-width="3" stroke-linecap="round" stroke-linejoin="round"/>
<path d="M1316.03 422.582L1576.74 654.71" stroke="white" stroke-width="3" stroke-linecap="round" stroke-linejoin="round"/>
<path d="M1316.03 422.582L1525.42 701.876" stroke="white" stroke-width="3" stroke-linecap="round" stroke-linejoin="round"/>
<path d="M1316.03 422.582L1465.76 737.909" stroke="white" stroke-width="3" stroke-linecap="round" stroke-linejoin="round"/>
<path d="M1316.03 422.582L1400.13 761.37" stroke="white" stroke-width="3" stroke-linecap="round" stroke-linejoin="round"/>
<path d="M1316.03 422.583L1331.15 771.325" stroke="white" stroke-width="3" stroke-linecap="round" stroke-linejoin="round"/>
<path d="M1316.03 422.583L1261.56 767.376" stroke="white" stroke-width="3" stroke-linecap="round" stroke-linejoin="round"/>
<path d="M1316.03 422.582L1194.15 749.682" stroke="white" stroke-width="3" stroke-linecap="round" stroke-linejoin="round"/>
<path d="M1316.03 422.582L1131.59 718.947" stroke="white" stroke-width="3" stroke-linecap="round" stroke-linejoin="round"/>
<path d="M1316.03 422.583L1076.39 676.397" stroke="white" stroke-width="3" stroke-linecap="round" stroke-linejoin="round"/>
<path d="M1316.03 422.583L1030.74 623.728" stroke="white" stroke-width="3" stroke-linecap="round" stroke-linejoin="round"/>
<path d="M1316.03 422.583L996.469 563.041" stroke="white" stroke-width="3" stroke-linecap="round" stroke-linejoin="round"/>
<path d="M1316.03 422.583L974.934 496.753" stroke="white" stroke-width="3" stroke-linecap="round" stroke-linejoin="round"/>
<path d="M1316.03 422.583L966.997 427.509" stroke="white" stroke-width="3" stroke-linecap="round" stroke-linejoin="round"/>
<path d="M1316.03 422.583L972.976 358.068" stroke="white" stroke-width="3" stroke-linecap="round" stroke-linejoin="round"/>
<path d="M1316.03 422.582L992.632 291.2" stroke="white" stroke-width="3" stroke-linecap="round" stroke-linejoin="round"/>
<path d="M1316.03 422.583L1025.18 229.569" stroke="white" stroke-width="3" stroke-linecap="round" stroke-linejoin="round"/>
<path d="M1316.03 422.583L1069.32 175.633" stroke="white" stroke-width="3" stroke-linecap="round" stroke-linejoin="round"/>
<path d="M1316.03 422.583L1123.3 131.542" stroke="white" stroke-width="3" stroke-linecap="round" stroke-linejoin="round"/>
<path d="M1316.03 422.583L1184.97 99.0535" stroke="white" stroke-width="3" stroke-linecap="round" stroke-linejoin="round"/>
<path d="M1316.03 422.583L1251.85 79.4635" stroke="white" stroke-width="3" stroke-linecap="round" stroke-linejoin="round"/>
<path d="M1316.03 422.583L1321.3 73.5526" stroke="white" stroke-width="3" stroke-linecap="round" stroke-linejoin="round"/>
<path d="M1316.03 422.583L1390.54 81.5564" stroke="white" stroke-width="3" stroke-linecap="round" stroke-linejoin="round"/>
<path d="M1316.03 422.583L1456.8 103.156" stroke="white" stroke-width="3" stroke-linecap="round" stroke-linejoin="round"/>
<path d="M1316.03 422.583L1517.46 137.49" stroke="white" stroke-width="3" stroke-linecap="round" stroke-linejoin="round"/>
<path d="M1316.03 422.583L1570.08 183.19" stroke="white" stroke-width="3" stroke-linecap="round" stroke-linejoin="round"/>
<path d="M1316.03 422.583L1612.58 238.433" stroke="white" stroke-width="3" stroke-linecap="round" stroke-linejoin="round"/>
<path d="M1316.03 422.583L1643.25 301.018" stroke="white" stroke-width="3" stroke-linecap="round" stroke-linejoin="round"/>
<path d="M1316.03 422.583L1660.88 368.45" stroke="white" stroke-width="3" stroke-linecap="round" stroke-linejoin="round"/>
<path d="M1316.03 422.583L1664.76 438.039" stroke="white" stroke-width="3" stroke-linecap="round" stroke-linejoin="round"/>
<path d="M1316.03 422.583L1654.74 507.012" stroke="white" stroke-width="3" stroke-linecap="round" stroke-linejoin="round"/>
<path d="M1316.03 422.583L1631.21 572.62" stroke="white" stroke-width="3" stroke-linecap="round" stroke-linejoin="round"/>
<path d="M1316.03 422.583L1595.12 632.246" stroke="white" stroke-width="3" stroke-linecap="round" stroke-linejoin="round"/>
<path d="M1316.03 422.582L1547.91 683.513" stroke="white" stroke-width="3" stroke-linecap="round" stroke-linejoin="round"/>
</g>
<path d="M227.6 145.067L141.333 231.333V403.333V575.333L227.6 661.6C284.667 718.667 314.933 748 316.667 748C318.4 748 348.4 718.933 405.067 662.267L490.667 576.667V490.4C490.667 413.6 490.4 404 488.533 402.133C486.667 400.267 480.533 400 435.6 400.267C385.733 400.667 384.667 400.667 384.667 403.333C384.667 406 385.733 406 435.067 406.4L485.333 406.667V490.4V574L400.933 658.4L316.667 742.667L232.267 658.4L148 574V403.333V232.667L232.267 148.4L316.667 63.9999L401.467 148.8C451.733 199.067 486.933 233.333 487.867 232.8C488.667 232.267 489.333 231.333 489.333 230.667C489.333 228.533 318.267 58.6666 316.133 58.6666C314.933 58.6666 275.067 97.4666 227.6 145.067Z" fill="white"/>
<path d="M737.6 404.267L738 748.667H825.333C902.133 748.667 912.667 748.4 912.667 746.667C912.667 744.933 902.133 744.667 827.733 744.267L742.667 744L742.4 402.4C742 78.0001 741.867 60.6667 739.6 60.2667C737.467 59.8667 737.333 76.6667 737.6 404.267Z" fill="white"/>
<path d="M1743.47 61.2001C1742.67 62.2668 1743.73 73.0668 1746.67 96.6667C1747.33 101.733 1748.53 111.333 1749.33 118C1750.93 131.067 1752.8 146.133 1754 156.667C1754.4 160.267 1755.33 167.467 1756 172.667C1756.67 177.733 1757.87 187.333 1758.67 194C1759.47 200.533 1760.67 210.133 1761.33 215.333C1762 220.4 1763.2 230 1764 236.667C1764.8 243.2 1766 252.8 1766.67 258C1767.47 263.067 1769.2 277.467 1770.67 290C1773.33 312.267 1774 317.467 1778 348C1779.07 356.4 1780.67 368.4 1781.47 374.667C1782.13 380.933 1783.33 390.133 1784 395.333C1784.67 400.4 1785.87 410 1786.67 416.667C1787.47 423.2 1788.67 432.8 1789.33 438C1790 443.067 1791.2 452.667 1792 459.333C1792.8 465.867 1794 475.467 1794.67 480.667C1795.33 485.733 1796.53 495.733 1797.33 502.667C1798.13 509.6 1799.07 517.467 1799.47 520C1800.13 524.4 1801.6 536.267 1803.33 551.333C1803.73 554.933 1804.67 562.133 1805.33 567.333C1806 572.4 1807.2 582 1808 588.667C1808.8 595.2 1810 604.8 1810.67 610C1811.33 615.067 1812.53 624.667 1813.33 631.333C1814.13 637.867 1815.33 647.467 1816 652.667C1816.8 657.733 1818.53 672.133 1820 684.667C1824.53 722 1828.13 745.867 1829.47 747.333C1831.87 749.733 1834.4 743.867 1838.67 725.333C1839.33 722.8 1856.27 654.933 1876.4 574.667C1896.53 494.4 1913.47 426 1914 422.667C1914.53 419.333 1915.33 416.133 1915.6 415.467C1916.67 413.867 1918.67 417.467 1918.67 420.933C1918.67 422.667 1922.4 438.533 1926.8 456.267C1931.33 474.133 1935.47 490.8 1936 493.333C1937.07 497.733 1940 509.6 1942.67 520.267C1945.87 532.667 1946.93 536.933 1948 541.333C1948.67 543.867 1949.73 548.4 1950.53 551.333C1952.27 558.133 1971.33 634 1980.8 672.667C1984.8 688.8 1988.67 704.133 1989.33 706.667C1989.87 709.2 1991.07 713.733 1991.73 716.667C1992.53 719.6 1994.4 726.133 1995.87 731.333C1997.33 736.4 1998.67 742.133 1998.93 744C1999.33 747.6 2003.6 749.467 2004.53 746.4C2005.07 744.4 2007.73 726.4 2009.33 712.667C2010.53 703.067 2012.53 686.667 2014.8 669.333C2015.47 663.867 2016.67 654.267 2017.33 648C2018.93 635.333 2020.53 621.867 2022.67 606C2023.33 600.133 2024.53 590.267 2025.33 584C2026.13 577.733 2027.2 568.133 2027.87 562.667C2030.53 542.267 2032.13 528.4 2033.33 519.333C2034 514.133 2035.2 504.933 2036 498.667C2036.8 492.4 2038 482.533 2038.67 476.667C2040.13 464.4 2040.93 458.133 2046.53 413.333C2051.2 376.4 2052.93 363.467 2054.67 350C2055.33 344.8 2056.53 334.933 2057.33 328C2058.13 321.067 2059.07 313.467 2059.47 311.333C2059.87 309.067 2060.8 302.267 2061.47 296C2062.27 289.733 2063.33 280.133 2064.13 274.667C2064.8 269.2 2066 259.6 2066.67 253.333C2068 242.267 2069.2 233.2 2071.87 211.333C2072.67 205.467 2073.87 195.2 2074.67 188.667C2075.47 182 2076.67 172.4 2077.33 167.333C2079.73 147.867 2081.47 133.733 2082.67 124C2083.33 118.533 2084.53 109.2 2085.33 103.333C2086.13 97.4667 2087.33 87.8668 2088 82.0001C2088.67 76.1334 2089.6 69.0668 2090.13 66.4001C2090.8 62.4001 2090.53 61.2001 2088.8 60.5334C2085.47 59.2001 2084.8 60.5334 2083.87 70.4001C2083.33 75.3334 2082.13 84.6667 2081.33 91.3334C2080.53 97.8668 2079.33 107.467 2078.67 112.667C2076.27 131.733 2074.53 146.267 2073.33 156C2072.27 165.2 2069.73 185.067 2060.67 255.333C2058.8 270 2056.67 286.8 2056 292.667C2055.33 298.533 2054.13 308.4 2053.33 314.667C2052.53 320.933 2051.33 330.133 2050.67 335.333C2050 340.4 2048.8 350 2048 356.667C2047.2 363.2 2046 373.2 2045.33 378.667C2044.67 384.133 2043.47 393.733 2042.67 400C2042 406.267 2040.67 416.133 2040 422C2039.2 427.867 2038 437.2 2037.33 442.667C2036.67 448.133 2035.47 458 2034.67 464.667C2033.87 471.2 2032.67 481.2 2032 486.667C2030.67 497.067 2029.2 508.8 2026.67 528C2025.87 534.267 2024.67 544.133 2024 550C2023.33 555.867 2020.67 577.467 2018 598C2015.33 618.533 2012.67 640 2011.87 645.6C2010.27 658.933 2008.27 675.333 2006.67 688C2005.87 693.467 2004.67 705.2 2003.87 714C2002.93 722.8 2001.87 730.533 2001.33 731.067C2000.8 731.733 1999.6 728.4 1998.8 723.733C1997.33 716.133 1993.6 700.933 1987.33 676C1984.27 664.267 1983.07 659.067 1981.47 652C1980.67 648.667 1978.8 641.2 1977.2 635.333C1975.73 629.467 1973.87 622.267 1973.2 619.333C1972.53 616.4 1971.33 611.6 1970.53 608.667C1968.67 601.467 1966.93 594.8 1965.87 590C1965.33 587.733 1958.93 562.267 1951.6 533.333C1944.4 504.4 1937.87 478.4 1937.2 475.6C1936.53 472.933 1935.47 468.4 1934.67 465.6C1934 462.933 1932.8 458 1932 454.667C1930.4 448.133 1928.53 440.667 1926.67 432.933C1923.73 421.467 1922.67 417.6 1920.93 410.667C1919.6 405.067 1918.53 403.333 1916.67 403.333C1915.2 403.333 1913.87 404.667 1913.2 406.667C1911.87 411.2 1908.13 424.933 1906.67 430.667C1903.73 442.133 1895.73 474.267 1895.07 477.333C1894.67 479.2 1886.53 511.6 1877.07 549.333C1867.47 587.067 1859.2 620.4 1858.53 623.333C1857.87 626.267 1856.13 633.467 1854.53 639.333C1851.07 652.8 1849.87 657.733 1848.13 665.333C1847.33 668.667 1844.13 681.867 1840.93 694.667C1837.6 707.467 1834.67 720.667 1834.13 724C1832.4 735.467 1831.2 733.333 1829.47 716.4C1828.67 706.933 1827.33 696 1826.67 692C1826 688 1824.8 678.667 1824 671.333C1822.67 658.8 1821.6 649.733 1818.67 627.333C1818 622.133 1816.8 613.067 1816 607.067C1815.33 600.933 1814.13 591.333 1813.33 585.733C1812.67 580 1811.47 569.867 1810.67 563.333C1809.87 556.667 1808.27 544.667 1807.2 536.667C1803.33 506.667 1802.67 501.6 1800.67 485.333C1799.47 476.133 1797.87 463.6 1797.2 457.333C1795.6 444.4 1793.73 429.2 1791.87 414.667C1791.2 409.2 1790 400.133 1789.33 394.667C1788.67 389.2 1787.47 379.2 1786.67 372.667C1785.87 366 1784.67 356.133 1784 350.667C1783.33 345.2 1782.13 335.867 1781.33 330C1780.67 324.133 1779.47 314.533 1778.67 308.667C1778 302.8 1776.8 293.2 1776 287.333C1775.33 281.467 1774.13 271.6 1773.33 265.333C1771.73 251.333 1770 237.2 1768.13 223.333C1766.27 209.067 1763.33 184.933 1759.2 152.667C1757.47 138 1755.33 122.133 1754.67 117.333C1754 112.533 1752.8 102.4 1752 94.6667C1751.07 86.9334 1749.87 77.7334 1749.2 74.2668C1748.53 70.8001 1748 66.1334 1748 64.0001C1748 60.1334 1745.2 58.4001 1743.47 61.2001Z" fill="white"/>
<defs>
<clipPath id="clip0_61_286">
<rect width="2141.33" height="845.333" fill="white"/>
</clipPath>
</defs>
</svg>
